<svg width="256" height="29" viewBox="0 0 256 29" fill="none" xmlns="http://www.w3.org/2000/svg">
<path d="M256 22.2893L245.651 17.0573L239.563 20.1349L256 28.4444L256 22.2893Z" fill="#DC1637"/>
<path d="M222.943 11.7324L211.911 6.15517L211.911 0L229.031 8.6548L222.943 11.7324Z" fill="#DC1637"/>
<path d="M256 0L211.911 22.2893L211.911 28.4444L256 6.15517V0Z" fill="#DC1637"/>
<path d="M179.2 11.3778L183.467 9.95556V28.4444H179.2V11.3778Z" fill="#D9D9D9"/>
<path d="M159.289 0H203.378V5.68889H159.289V0Z" fill="#D9D9D9"/>
<path d="M103.822 0V28.4444H109.511V7.57088L147.911 28.4444H153.6V0H147.911V20.8736L109.511 0H103.822Z" fill="#D9D9D9"/>
<path d="M54.0444 0H99.5556V5.68889H54.0444V0Z" fill="#D9D9D9"/>
<path d="M54.0444 11.3778H99.5556V17.0667H54.0444V11.3778Z" fill="#D9D9D9"/>
<path d="M54.0444 22.7556H99.5556V28.4444H54.0444V22.7556Z" fill="#D9D9D9"/>
<path d="M18.4889 0H46.9333V5.68889H18.4889C11.4196 5.68889 5.68889 11.4196 5.68889 18.4889V28.4444H0V18.4889C0 8.27776 8.27776 0 18.4889 0Z" fill="#D9D9D9"/>
</svg>
